<svg xmlns="http://www.w3.org/2000/svg" class="reverse-icon"width="405" height="360.938" viewBox="0 0 405 360.938">
  <defs>
    <style>
      .cls-1 {
        fill: #18BC9C;
        fill-rule: evenodd;
      }
    </style>
  </defs>
  <path class="cls-1" d="M164.534,78.436s13.8-9.666,26.334,3.487,1.711,28.7,1.711,28.7l-67.47,71.328,262.5,0.263s14.245,3.815,14.245,21.723-14.22,20.818-14.22,20.818-211.015.025-316.526,0.086c-11.638-1.544-19.8-15.34-16.325-27.035C56.55,190.5,164.534,78.436,164.534,78.436ZM348.448,432.556s-13.8,9.668-26.336-3.483-1.711-28.7-1.711-28.7l67.47-71.329-262.5-.261s-14.243-3.816-14.243-21.725,14.218-20.817,14.218-20.817,211.02-.025,316.526-0.085c11.638,1.543,19.8,15.339,16.328,27.034C456.427,320.5,348.448,432.556,348.448,432.556Z" transform="translate(-53.969 -75.031)"/>
</svg>
